<svg xmlns="http://www.w3.org/2000/svg" width="38.259" height="38.259" viewBox="0 0 38.259 38.259">
  <g id="트위터" transform="translate(-100.398)">
    <path id="패스_48" data-name="패스 48" d="M869.067,19.129A19.129,19.129,0,1,1,849.937,0a19.129,19.129,0,0,1,19.129,19.129" transform="translate(-730.41)" fill="#777"/>
    <path id="패스_49" data-name="패스 49" d="M908.493,104.5s7.96,4.4,14.374,0c5.487-3.941,4.328-10.819,4.328-10.819l2.241-2.164-2.164.618,2.164-2.4s-3.168.85-3.4.927c-.164.055-.627-.315-.76-.387a8.271,8.271,0,0,0-1.69-.719,4.367,4.367,0,0,0-4.789,1.76,4.671,4.671,0,0,0-.334,3.365s-7.419-.958-8.192-5.154c-2.55,2.682.464,6,.464,6a2.09,2.09,0,0,1-2.241-.464,4.379,4.379,0,0,0,3.555,4.482,4.185,4.185,0,0,1-2.241-.077c.541,2.4,4.405,3.091,4.405,3.091s-.309,2.473-5.719,1.932" transform="translate(-798.707 -78.608)" fill="#fff"/>
  </g>
</svg>
