<svg xmlns="http://www.w3.org/2000/svg" width="38.259" height="38.259" viewBox="0 0 38.259 38.259">
  <g id="카카오톡" transform="translate(-150.741)">
    <path id="패스_50" data-name="패스 50" d="M1285.664,19.129A19.129,19.129,0,1,1,1266.534,0a19.129,19.129,0,0,1,19.13,19.129" transform="translate(-1096.664)" fill="#777"/>
    <path id="패스_51" data-name="패스 51" d="M1327.364,76.07c-5.947,0-10.768,3.8-10.768,8.49,0,3.031,2.015,5.692,5.047,7.193-.165.569-1.06,3.66-1.1,3.9,0,0-.021.182.1.252a.325.325,0,0,0,.257.015c.339-.047,3.929-2.569,4.55-3.007a13.65,13.65,0,0,0,1.913.134c5.947,0,10.768-3.8,10.768-8.49s-4.821-8.49-10.768-8.49" transform="translate(-1157.493 -66.877)" fill="#fff"/>
    <path id="패스_52" data-name="패스 52" d="M1340.43,130.837a.608.608,0,0,1-.621-.593v-3.691h-.969a.608.608,0,1,1,0-1.217h3.181a.608.608,0,1,1,0,1.217h-.969v3.691a.608.608,0,0,1-.621.593" transform="translate(-1176.513 -110.19)" fill="#777"/>
    <path id="패스_53" data-name="패스 53" d="M1371.182,130.829a.51.51,0,0,1-.517-.274l-.308-.805h-1.894l-.308.806a.509.509,0,0,1-.517.274.949.949,0,0,1-.395-.086c-.171-.079-.336-.3-.147-.882l1.486-3.911a.865.865,0,0,1,1.656,0l1.485,3.909c.189.587.024.8-.147.883a.951.951,0,0,1-.395.086m-1.151-2.18-.621-1.763-.62,1.763Z" transform="translate(-1201.817 -110.191)" fill="#777"/>
    <path id="패스_54" data-name="패스 54" d="M1409.939,130.746a.584.584,0,0,1-.6-.569v-4.219a.634.634,0,0,1,1.268,0v3.65h1.32a.57.57,0,1,1,0,1.139Z" transform="translate(-1239.033 -110.19)" fill="#777"/>
    <path id="패스_55" data-name="패스 55" d="M1438.312,130.828a.622.622,0,0,1-.621-.621v-4.25a.621.621,0,0,1,1.243,0v1.335l1.733-1.733a.482.482,0,0,1,.344-.138.629.629,0,0,1,.61.577.484.484,0,0,1-.137.378l-1.416,1.416,1.529,2.026a.621.621,0,0,1-.992.748l-1.457-1.93-.216.215v1.355a.622.622,0,0,1-.621.621" transform="translate(-1263.955 -110.19)" fill="#777"/>
  </g>
</svg>
