<svg xmlns="http://www.w3.org/2000/svg" width="38.259" height="38.259" viewBox="0 0 38.259 38.259">
  <g id="인스타그램" transform="translate(-50.055)">
    <path id="패스_43" data-name="패스 43" d="M452.47,19.129A19.129,19.129,0,1,1,433.34,0,19.129,19.129,0,0,1,452.47,19.129" transform="translate(-364.156)" fill="#777"/>
    <path id="패스_44" data-name="패스 44" d="M499.789,75.922H491.05a5.922,5.922,0,0,0-5.922,5.922v8.507a5.922,5.922,0,0,0,5.922,5.922h8.739a5.922,5.922,0,0,0,5.922-5.922V81.844a5.922,5.922,0,0,0-5.922-5.922m-4.257,14.911a4.548,4.548,0,1,1,4.548-4.548,4.548,4.548,0,0,1-4.548,4.548" transform="translate(-426.503 -66.747)" fill="#fff"/>
    <path id="패스_45" data-name="패스 45" d="M613.122,102.4a1.226,1.226,0,1,1-1.226-1.226,1.226,1.226,0,0,1,1.226,1.226" transform="translate(-536.874 -88.944)" fill="#777"/>
  </g>
</svg>
