<svg xmlns="http://www.w3.org/2000/svg" xmlns:xlink="http://www.w3.org/1999/xlink" width="864" height="208" viewBox="0 0 864 208">
  <defs>
    <clipPath id="clip-path">
      <rect id="사각형_48" data-name="사각형 48" width="61.985" height="55.646" fill="#3cc"/>
    </clipPath>
  </defs>
  <g id="이용신청_과정" data-name="이용신청 과정" transform="translate(-528 -4718)">
    <rect id="사각형_35" data-name="사각형 35" width="119" height="40" rx="20" transform="translate(539 4886)" fill="rgba(51,204,204,0.1)"/>
    <rect id="사각형_49" data-name="사각형 49" width="118" height="40" rx="20" transform="translate(722 4886)" fill="rgba(51,204,204,0.1)"/>
    <rect id="사각형_50" data-name="사각형 50" width="118" height="40" rx="20" transform="translate(902 4886)" fill="rgba(51,204,204,0.1)"/>
    <rect id="사각형_51" data-name="사각형 51" width="118" height="40" rx="20" transform="translate(1084 4886)" fill="rgba(51,204,204,0.1)"/>
    <rect id="사각형_52" data-name="사각형 52" width="119" height="40" rx="20" transform="translate(1263 4886)" fill="rgba(51,204,204,0.1)"/>
    <text id="이용신청" transform="translate(598 4914)" font-size="18" font-family="MalgunGothicBold, Malgun Gothic"><tspan x="-36" y="0">이용신청</tspan></text>
    <text id="신청완료" transform="translate(781 4914)" font-size="18" font-family="MalgunGothicBold, Malgun Gothic"><tspan x="-36" y="0">신청완료</tspan></text>
    <text id="승인대기" transform="translate(961 4914)" font-size="18" font-family="MalgunGothicBold, Malgun Gothic"><tspan x="-36" y="0">승인대기</tspan></text>
    <text id="승인" transform="translate(1143 4914)" font-size="18" font-family="MalgunGothicBold, Malgun Gothic"><tspan x="-18" y="0">승인</tspan></text>
    <text id="만료" transform="translate(1323 4914)" font-size="18" font-family="MalgunGothicBold, Malgun Gothic"><tspan x="-18" y="0">만료</tspan></text>
    <g id="타원_8" data-name="타원 8" transform="translate(528 4718)" fill="#fff" stroke="#e3e3e3" stroke-width="2">
      <ellipse cx="70.5" cy="71.5" rx="70.5" ry="71.5" stroke="none"/>
      <ellipse cx="70.5" cy="71.5" rx="69.5" ry="70.5" fill="none"/>
    </g>
    <g id="타원_9" data-name="타원 9" transform="translate(709 4718)" fill="#fff" stroke="#e3e3e3" stroke-width="2">
      <ellipse cx="72" cy="71.5" rx="72" ry="71.5" stroke="none"/>
      <ellipse cx="72" cy="71.5" rx="71" ry="70.5" fill="none"/>
    </g>
    <g id="타원_10" data-name="타원 10" transform="translate(893 4718)" fill="#fff" stroke="#e3e3e3" stroke-width="2">
      <ellipse cx="69" cy="71.5" rx="69" ry="71.5" stroke="none"/>
      <ellipse cx="69" cy="71.5" rx="68" ry="70.5" fill="none"/>
    </g>
    <g id="타원_11" data-name="타원 11" transform="translate(1072 4718)" fill="#fff" stroke="#e3e3e3" stroke-width="2">
      <ellipse cx="70.5" cy="71.5" rx="70.5" ry="71.5" stroke="none"/>
      <ellipse cx="70.5" cy="71.5" rx="69.5" ry="70.5" fill="none"/>
    </g>
    <g id="타원_13" data-name="타원 13" transform="translate(1253 4718)" fill="#fff" stroke="#e3e3e3" stroke-width="2">
      <ellipse cx="69.5" cy="71.5" rx="69.5" ry="71.5" stroke="none"/>
      <ellipse cx="69.5" cy="71.5" rx="68.5" ry="70.5" fill="none"/>
    </g>
    <g id="arrow" transform="translate(680.707 4782.298)">
      <path id="패스_15" data-name="패스 15" d="M4496.156-2787.056l6.53,6.531-6.53,6.531" transform="translate(-4496.156 2787.056)" fill="none" stroke="#c6c6c6" stroke-linecap="round" stroke-width="3"/>
      <path id="패스_16" data-name="패스 16" d="M4496.156-2787.056l6.53,6.531-6.53,6.531" transform="translate(-4487.264 2787.056)" fill="none" stroke="#c6c6c6" stroke-linecap="round" stroke-width="3"/>
    </g>
    <g id="arrow1" transform="translate(864.558 4782.298)">
      <path id="패스_18" data-name="패스 18" d="M4496.156-2787.056l6.53,6.531-6.53,6.531" transform="translate(-4496.156 2787.056)" fill="none" stroke="#c6c6c6" stroke-linecap="round" stroke-width="3"/>
      <path id="패스_17" data-name="패스 17" d="M4496.156-2787.056l6.53,6.531-6.53,6.531" transform="translate(-4487.264 2787.056)" fill="none" stroke="#c6c6c6" stroke-linecap="round" stroke-width="3"/>
    </g>
    <g id="arrow2" transform="translate(1043.386 4782.298)">
      <path id="패스_20" data-name="패스 20" d="M4496.156-2787.056l6.53,6.531-6.53,6.531" transform="translate(-4496.156 2787.056)" fill="none" stroke="#c6c6c6" stroke-linecap="round" stroke-width="3"/>
      <path id="패스_19" data-name="패스 19" d="M4496.156-2787.056l6.53,6.531-6.53,6.531" transform="translate(-4487.264 2787.056)" fill="none" stroke="#c6c6c6" stroke-linecap="round" stroke-width="3"/>
    </g>
    <g id="arrow3" transform="translate(1225.228 4782.298)">
      <path id="패스_36" data-name="패스 36" d="M4496.156-2787.056l6.53,6.531-6.53,6.531" transform="translate(-4496.156 2787.056)" fill="none" stroke="#c6c6c6" stroke-linecap="round" stroke-width="3"/>
      <path id="패스_35" data-name="패스 35" d="M4496.156-2787.056l6.53,6.531-6.53,6.531" transform="translate(-4487.264 2787.056)" fill="none" stroke="#c6c6c6" stroke-linecap="round" stroke-width="3"/>
    </g>
    <path id="합치기_7" data-name="합치기 7" d="M24.666,55.646c-.148-.056-.3-.118-.447-.167A3.642,3.642,0,0,1,21.6,51.895c0-1.286,0-2.571.019-3.856a.484.484,0,0,0-.388-.54c-.893-.341-1.782-.7-2.656-1.087a.52.52,0,0,0-.7.123c-.868.9-1.756,1.777-2.645,2.655a3.45,3.45,0,0,1-5.117.014Q8.3,47.405,6.5,45.6a3.438,3.438,0,0,1,.01-5.116c.929-.938,1.857-1.878,2.726-2.759C8.761,36.55,8.3,35.4,7.811,34.26c-.051-.118-.312-.2-.476-.2-.689-.012-1.38-.01-2.069-.01-.469,0-.939,0-1.407,0A3.721,3.721,0,0,1,0,30.174C0,28.49,0,26.805,0,25.121a3.446,3.446,0,0,1,3.359-3.494c1.265-.047,2.533-.03,3.8-.013.337,0,.443-.128.556-.426.388-1.028.8-2.049,1.254-3.049.151-.331.176-.518-.1-.788-.831-.806-1.636-1.642-2.439-2.476a3.442,3.442,0,0,1,.015-5q1.823-1.863,3.685-3.689a3.429,3.429,0,0,1,5.076.032c.9.888,1.8,1.779,2.681,2.65,1.149-.454,2.295-.891,3.424-1.368a.631.631,0,0,0,.271-.488c.024-1.123.061-2.248,0-3.367A3.51,3.51,0,0,1,25.162.015c1.883-.016,3.766-.025,5.649,0a3.191,3.191,0,0,1,3.207,3.164c.038,1.249.034,2.5.01,3.748-.008.4.144.55.5.687q1.517.582,2.992,1.265a.5.5,0,0,0,.691-.126c.834-.857,1.683-1.7,2.532-2.538a3.445,3.445,0,0,1,5.118,0q1.813,1.8,3.606,3.614a3.476,3.476,0,0,1,.018,5.128c-.845.871-1.694,1.737-2.569,2.579a.658.658,0,0,0-.163.914,25.9,25.9,0,0,1,1.1,2.761.488.488,0,0,0,.571.4c1.049-.013,2.1,0,3.15,0,2.481,0,3.178.471,4.052,2.744v6.738a.965.965,0,0,0-.1.186A3.284,3.284,0,0,1,52,34.048c-1.248,0-2.5.008-3.745-.005a.5.5,0,0,0-.572.356c-.394,1.006-.82,2-1.248,3.031,1,1,2.021,2,3.022,3.02a3.461,3.461,0,0,1-.01,5.157q-1.758,1.774-3.533,3.531a3.475,3.475,0,0,1-5.234.008c-.926-.916-1.842-1.843-2.783-2.745a.62.62,0,0,0-.536-.127c-1.094.462-2.173.963-3.326,1.484v.5c0,1.357.023,2.716-.02,4.072a3.319,3.319,0,0,1-1.56,2.771,8.841,8.841,0,0,1-1.161.549ZM30.1,52.335c.483.009.658-.106.648-.626-.033-1.774-.02-3.55-.009-5.325a1.593,1.593,0,0,1,1.366-1.7,13.759,13.759,0,0,0,4.638-1.9,1.7,1.7,0,0,1,2.477.268q1.872,1.816,3.709,3.666c.29.293.461.279.74-.008,1.113-1.141,2.249-2.258,3.375-3.386.086-.088.158-.188.324-.387-.4-.361-.819-.684-1.177-1.062-1.009-1.061-2.011-2.129-2.984-3.223a1.658,1.658,0,0,1-.142-2.11A17.871,17.871,0,0,0,44.935,32.1a1.61,1.61,0,0,1,1.815-1.361c1.63-.008,3.259,0,4.889,0h.624V24.912h-.626c-1.556,0-3.113,0-4.671,0A1.725,1.725,0,0,1,45.027,23.4a18.651,18.651,0,0,0-1.918-4.822,1.673,1.673,0,0,1,.319-2.3q1.732-1.726,3.463-3.452c.137-.137.265-.283.31-.331-1.356-1.359-2.675-2.68-4.012-4.018.044-.025.006-.014-.019.011q-1.821,1.826-3.642,3.656a1.68,1.68,0,0,1-2.386.308,18.619,18.619,0,0,0-4.822-2.06,1.727,1.727,0,0,1-1.54-1.925c-.046-1.537-.035-3.078-.049-4.616,0-.194,0-.387,0-.585a1.629,1.629,0,0,0-.265-.057c-1.7.009-3.405.024-5.107.028-.4,0-.467.216-.464.558.012,1.522.008,3.043,0,4.564a1.712,1.712,0,0,1-1.426,1.949,23.915,23.915,0,0,0-5.041,2.109,1.643,1.643,0,0,1-2.161-.353c-1.077-1.124-2.178-2.224-3.25-3.353-.285-.3-.468-.276-.744.008Q10.745,10.3,9.17,11.835a2.525,2.525,0,0,1-.591.346c1.355,1.4,2.522,2.607,3.7,3.808a1.734,1.734,0,0,1,.3,2.48,15.3,15.3,0,0,0-2.019,4.944,1.673,1.673,0,0,1-1.877,1.5c-1.575,0-3.151.018-4.727-.008-.506-.009-.655.161-.646.659.029,1.484.027,2.97.005,4.455-.008.486.144.673.652.672,1.646-.005,3.293.029,4.942.053A1.608,1.608,0,0,1,10.673,32.1a18.276,18.276,0,0,0,2.05,4.709,1.7,1.7,0,0,1-.278,2.4q-1.49,1.505-2.994,3c-.267.264-.573.487-.786.665l4.088,4.081c.079-.074.213-.19.338-.316q1.718-1.7,3.433-3.4A1.723,1.723,0,0,1,19,42.9a17.743,17.743,0,0,0,4.454,1.819,1.749,1.749,0,0,1,1.522,2.034c-.033,1.611-.054,3.222-.074,4.833-.007.681.054.741.74.743.494,0,.99,0,1.484,0l1.019,0C28.8,52.319,29.447,52.322,30.1,52.335ZM27.924,38.618a11.27,11.27,0,1,1,.051,0Zm0-19.184a7.941,7.941,0,1,0,.045,0Z" transform="translate(934.5 4761.5)" fill="#3cc" stroke="#3cc" stroke-width="1"/>
    <path id="합치기_10" data-name="합치기 10" d="M16.849,52.965q-2.993,0-5.985-.009h-.024a10.848,10.848,0,0,1-8.01-3.512A10.613,10.613,0,0,1,.217,44.085a31.087,31.087,0,0,1-.205-5.228q-.023-13.912,0-27.825A10.766,10.766,0,0,1,4.857,1.826,11.3,11.3,0,0,1,8.365.328,13.579,13.579,0,0,1,11.5.016Q24.852-.018,38.2.009h.631c1.21,0,2.423,0,3.629.072l.063,0,.031,0q.381.024.76.058a12.614,12.614,0,0,1,3.086.8,1.464,1.464,0,0,1,.38.2,1.162,1.162,0,0,1,0,1.812l-.01.01q-.692.721-1.409,1.418l-.307.3a1.4,1.4,0,0,1-.68.388,1.448,1.448,0,0,1-.652-.019,7.993,7.993,0,0,0-1.807-.188h-.974q-4.609,0-9.217,0c-6.876,0-13.753.009-20.629-.034A6.419,6.419,0,0,0,6.239,7,5.414,5.414,0,0,0,5,9.557a20.171,20.171,0,0,0-.175,3.64q0,.029,0,.058-.012,4.514-.01,9.027,0,1.2,0,2.409,0,3.309,0,6.616,0,.375,0,.749c0,3.288.016,6.576,0,9.863A6.06,6.06,0,0,0,9.37,47.928a8.26,8.26,0,0,0,1.873.169l3.091.006q6.052.006,12.1,0v-.01c4.1,0,8.193.02,12.289.007q1.789-.006,3.578-.021a5.907,5.907,0,0,0,5.8-5.913q.021-4.608,0-9.215h0a1.845,1.845,0,0,1,.608-1.455c.452-.426.891-.864,1.328-1.307l.7-.713a1.61,1.61,0,0,1,.686-.445,1.2,1.2,0,0,1,1.5,1.336c-.015,3.48-.013,6.961-.034,10.441q-.006.973-.014,1.946a9.169,9.169,0,0,1-.426,2.7l0,.006,0,.013a10.348,10.348,0,0,1-1.93,3.452,13.251,13.251,0,0,1-1.156,1.232,9.368,9.368,0,0,1-4.743,2.473,23.709,23.709,0,0,1-4.2.317h-.159q-8.086.021-16.17.021Q20.466,52.969,16.849,52.965Zm11-9.9a3.741,3.741,0,0,1-1.3-.867q-7.917-7.873-15.8-15.782a3.009,3.009,0,0,1,0-4.653q1.868-1.888,3.755-3.755a3.008,3.008,0,0,1,4.689,0q4.6,4.594,9.19,9.195a5.856,5.856,0,0,1,.431.553c2.959-2.963,5.833-5.842,8.71-8.717q7.788-7.791,15.579-15.575a2.959,2.959,0,0,1,4.477,0q1.979,1.916,3.894,3.9a3.044,3.044,0,0,1-.1,4.666q-4.784,4.8-9.58,9.583-10.251,10.249-20.5,20.5a3.382,3.382,0,0,1-2.385,1.154A3.052,3.052,0,0,1,27.854,43.068Z" transform="translate(1111 4763)" fill="#3cc"/>
    <path id="합치기_2" data-name="합치기 2" d="M5.132,52.969A5.138,5.138,0,0,1,0,47.837V5.132A5.138,5.138,0,0,1,5.132,0h33.5A5.138,5.138,0,0,1,43.76,5.132v14.2l5.675-5.675c1.768-1.768,4.478-2.13,6.146-.7a3.866,3.866,0,0,1,1.3,3.239,5.021,5.021,0,0,1-1.5,3.214L43.76,31.043V47.837a5.138,5.138,0,0,1-5.132,5.132ZM3.284,5.132v42.7a1.85,1.85,0,0,0,1.848,1.848h33.5a1.851,1.851,0,0,0,1.849-1.848V34.327l-4.631,4.631a4.59,4.59,0,0,1-1.377.949L30.61,41.621l-.636.282-.742.329-2.287,1.015A.919.919,0,0,1,25.7,42l1.016-2.287.328-.741.282-.63,0,0,1.718-3.862A4.583,4.583,0,0,1,29.99,33.1L40.476,22.618V5.132a1.851,1.851,0,0,0-1.849-1.849H5.132A1.851,1.851,0,0,0,3.284,5.132ZM9.458,44.188a1.642,1.642,0,0,1,0-3.284H20.7a1.642,1.642,0,1,1,0,3.284Zm0-8.031a1.642,1.642,0,1,1,0-3.284H23.593a1.642,1.642,0,0,1,0,3.284Zm0-8.031a1.642,1.642,0,0,1,0-3.284H29.233a1.642,1.642,0,1,1,0,3.284Zm0-8.031a1.642,1.642,0,0,1,0-3.284H34.3a1.642,1.642,0,1,1,0,3.284Zm0-8.031a1.642,1.642,0,0,1,0-3.284H34.3a1.642,1.642,0,1,1,0,3.284Z" transform="translate(570.5 4763.5)" fill="#3cc" stroke="#3cc" stroke-width="1"/>
    <path id="합치기_1" data-name="합치기 1" d="M5.329,52.969A5.348,5.348,0,0,1,.208,46.134a25.074,25.074,0,0,1,48.291.172,5.313,5.313,0,0,1-5.166,6.663Zm5.049-39.017A13.952,13.952,0,1,1,24.33,27.9,13.952,13.952,0,0,1,10.378,13.951Z" transform="translate(757 4763)" fill="#3cc" stroke="rgba(0,0,0,0)" stroke-width="1"/>
    <g id="그룹_7" data-name="그룹 7" transform="translate(1292 4762)">
      <g id="그룹_6" data-name="그룹 6" clip-path="url(#clip-path)">
        <path id="패스_40" data-name="패스 40" d="M5.6,26.042a19.518,19.518,0,0,1,38.2-6.559,8.187,8.187,0,0,1,6,1.853c-.055-.392-.084-.69-.14-.984A25.046,25.046,0,1,0,21.6,49.84c.4.057.638.022.783-.422a7.1,7.1,0,0,1,.628-1.283c.666-1.167,1.35-2.324,2.073-3.565A19.59,19.59,0,0,1,5.6,26.042" transform="translate(0 0)" fill="#3cc"/>
        <path id="패스_41" data-name="패스 41" d="M97.286,84.239Q90.077,71.85,82.835,59.479a3.489,3.489,0,0,0-.732-.9,2.757,2.757,0,0,0-4.229.862c-1.853,3.143-3.683,6.3-5.522,9.451q-4.434,7.6-8.869,15.193a3.059,3.059,0,0,0-.525,2.224,2.777,2.777,0,0,0,2.973,2.279q7.208.009,14.415,0c4.805,0,9.61.009,14.415,0a2.767,2.767,0,0,0,2.524-4.343M77.6,66.366H83.08V77.414H77.6ZM83.1,85.76H77.583V80.273H83.1Z" transform="translate(-35.78 -32.943)" fill="#3cc"/>
        <path id="패스_42" data-name="패스 42" d="M35.019,45.307a9.561,9.561,0,0,1-.814.662l3.978,4.014a2.189,2.189,0,0,0,.215-.173q4.315-4.309,8.614-8.632a1.339,1.339,0,0,0,.3-.865c.018-4.608.013-9.217.013-13.825V25.87H41.743v.753c0,3.782-.008,7.564.01,11.346a1.37,1.37,0,0,1-.452,1.077c-2.1,2.078-4.185,4.177-6.282,6.261" transform="translate(-19.454 -14.714)" fill="#3cc"/>
      </g>
    </g>
  </g>
</svg>
